<svg xmlns="http://www.w3.org/2000/svg" width="560" height="64" viewBox="0 0 560 64"><g transform="translate(0 0)"><g class="nc-icon-wrapper" fill="#111111"><path fill="#111111" d="M25.50195,52.27904c-5.57094,5.17976-15.05833,3.8102-19.50043-1.67434 c-5.25741-6.47749-6.30715-18.75427,2.85195-29.73619c4.54303-5.44717,10.01811-9.5772,16.41965-12.39008l2.95241,4.75511 c-9.10641,4.4128-15.91278,10.39585-16.8773,20.42689c4.10871,0,7.51761-0.14883,10.55389,0.93763 c3.45683,1.23695,5.55654,3.53097,6.41829,6.16155C29.68742,44.87838,29.02475,49.00361,25.50195,52.27904z M58.51985,52.27904 c-5.57094,5.17976-15.05833,3.8102-19.50043-1.67434c-5.25741-6.47749-6.30716-18.75427,2.85195-29.73619 c4.54303-5.44717,10.0181-9.5772,16.41965-12.39008l2.95241,4.75511c-9.10641,4.4128-15.91278,10.39585-16.8773,20.42689 c4.10871,0,7.51761-0.14883,10.55389,0.93763c3.45683,1.23695,5.55654,3.53097,6.41829,6.16155 C62.70531,44.87838,62.04264,49.00361,58.51985,52.27904z"/></g></g><g transform="translate(64 0)"><g class="nc-icon-wrapper" fill="#111111"><path data-color="color-2" d="M61,17h-8v22c0,1.105-0.895,2-2,2H29.128l-9.143,8H39.68l13.739,9.813 C53.592,58.938,53.795,59,54,59c0.156,0,0.313-0.037,0.458-0.11C54.791,58.718,55,58.375,55,58v-9h6c1.105,0,2-0.895,2-2V19 C63,17.895,62.105,17,61,17z"/> <path fill="#111111" d="M49,3H3C1.895,3,1,3.895,1,5v32c0,1.105,0.895,2,2,2h8v13c0,0.393,0.229,0.748,0.587,0.91 C11.719,52.971,11.86,53,12,53c0.237,0,0.473-0.085,0.658-0.247L28.376,39H49c1.105,0,2-0.895,2-2V5C51,3.895,50.105,3,49,3z"/></g></g><g transform="translate(128 0)"><g class="nc-icon-wrapper" fill="#111111"><path fill="#111111" d="M3.5,25l12.1,8.8l16.8-9.1c0.5-0.3,1,0.4,0.6,0.8L19,37v19.4c0,0.9,1.1,1.4,1.7,0.7l10.3-11.6L49.5,59 c0.6,0.4,1.4,0.1,1.6-0.6l10-54c0.1-0.8-0.6-1.4-1.3-1.1l-56,20C3,23.6,2.9,24.6,3.5,25z"/></g></g><g transform="translate(192 0)"><g class="nc-icon-wrapper" fill="#111111"><path d="M30.707,1.293a1,1,0,0,0-1.013-.245l-28,9a1,1,0,0,0-.2,1.816L11.4,17.643,21,11l-6.643,9.6L20.136,30.5A1,1,0,0,0,21,31a.977.977,0,0,0,.108-.006,1,1,0,0,0,.844-.688l9-28A1,1,0,0,0,30.707,1.293Z" fill="#111111"/></g></g><g transform="translate(224 0)"><g class="nc-icon-wrapper" fill="#111111"><path data-color="color-2" d="M23,6H20v8a2,2,0,0,1-2,2H11.688L7.849,19H14l6,4V19h3a1,1,0,0,0,1-1V7A1,1,0,0,0,23,6Z"/> <path d="M17,1H1A1,1,0,0,0,0,2V13a1,1,0,0,0,1,1H4v5.469L11,14h6a1,1,0,0,0,1-1V2A1,1,0,0,0,17,1Z" fill="#111111"/></g></g><g transform="translate(248 0)"><g class="nc-icon-wrapper" fill="#111111"><path fill="#111111" d="M12.74302,26.15643c-2.7882,2.59242-7.53655,1.90697-9.75978-0.83799 c-2.63128-3.24192-3.15667-9.38633,1.42737-14.88268c2.27374-2.72626,5.01397-4.7933,8.21788-6.20112l1.47765,2.37989 c-4.55767,2.20856-7.96419,5.20302-8.44693,10.22346c2.05637,0,3.76249-0.07449,5.28212,0.46927 c1.73011,0.61908,2.781,1.76722,3.21229,3.0838C14.8378,22.45246,14.50614,24.5171,12.74302,26.15643z M29.26816,26.15643 c-2.7882,2.59242-7.53655,1.90697-9.75978-0.83799c-2.63128-3.24192-3.15667-9.38633,1.42738-14.88268 c2.27374-2.72626,5.01397-4.7933,8.21788-6.20112l1.47765,2.37989c-4.55767,2.20856-7.96419,5.20302-8.44693,10.22346 c2.05637,0,3.76249-0.07449,5.28212,0.46927c1.73011,0.61908,2.781,1.76722,3.21229,3.0838 C31.36294,22.45246,31.03128,24.5171,29.26816,26.15643z"/></g></g><g transform="translate(280 0)"><g class="nc-icon-wrapper" fill="#ffffff"><path fill="#ffffff" d="M25.50195,52.27904c-5.57094,5.17976-15.05833,3.8102-19.50043-1.67434 c-5.25741-6.47749-6.30715-18.75427,2.85195-29.73619c4.54303-5.44717,10.01811-9.5772,16.41965-12.39008l2.95241,4.75511 c-9.10641,4.4128-15.91278,10.39585-16.8773,20.42689c4.10871,0,7.51761-0.14883,10.55389,0.93763 c3.45683,1.23695,5.55654,3.53097,6.41829,6.16155C29.68742,44.87838,29.02475,49.00361,25.50195,52.27904z M58.51985,52.27904 c-5.57094,5.17976-15.05833,3.8102-19.50043-1.67434c-5.25741-6.47749-6.30716-18.75427,2.85195-29.73619 c4.54303-5.44717,10.0181-9.5772,16.41965-12.39008l2.95241,4.75511c-9.10641,4.4128-15.91278,10.39585-16.8773,20.42689 c4.10871,0,7.51761-0.14883,10.55389,0.93763c3.45683,1.23695,5.55654,3.53097,6.41829,6.16155 C62.70531,44.87838,62.04264,49.00361,58.51985,52.27904z"/></g></g><g transform="translate(344 0)"><g class="nc-icon-wrapper" fill="#ffffff"><path data-color="color-2" d="M61,17h-8v22c0,1.105-0.895,2-2,2H29.128l-9.143,8H39.68l13.739,9.813 C53.592,58.938,53.795,59,54,59c0.156,0,0.313-0.037,0.458-0.11C54.791,58.718,55,58.375,55,58v-9h6c1.105,0,2-0.895,2-2V19 C63,17.895,62.105,17,61,17z"/> <path fill="#ffffff" d="M49,3H3C1.895,3,1,3.895,1,5v32c0,1.105,0.895,2,2,2h8v13c0,0.393,0.229,0.748,0.587,0.91 C11.719,52.971,11.86,53,12,53c0.237,0,0.473-0.085,0.658-0.247L28.376,39H49c1.105,0,2-0.895,2-2V5C51,3.895,50.105,3,49,3z"/></g></g><g transform="translate(408 0)"><g class="nc-icon-wrapper" fill="#ffffff"><path fill="#ffffff" d="M3.5,25l12.1,8.8l16.8-9.1c0.5-0.3,1,0.4,0.6,0.8L19,37v19.4c0,0.9,1.1,1.4,1.7,0.7l10.3-11.6L49.5,59 c0.6,0.4,1.4,0.1,1.6-0.6l10-54c0.1-0.8-0.6-1.4-1.3-1.1l-56,20C3,23.6,2.9,24.6,3.5,25z"/></g></g><g transform="translate(472 0)"><g class="nc-icon-wrapper" fill="#ffffff"><path d="M30.707,1.293a1,1,0,0,0-1.013-.245l-28,9a1,1,0,0,0-.2,1.816L11.4,17.643,21,11l-6.643,9.6L20.136,30.5A1,1,0,0,0,21,31a.977.977,0,0,0,.108-.006,1,1,0,0,0,.844-.688l9-28A1,1,0,0,0,30.707,1.293Z" fill="#ffffff"/></g></g><g transform="translate(504 0)"><g class="nc-icon-wrapper" fill="#ffffff"><path data-color="color-2" d="M23,6H20v8a2,2,0,0,1-2,2H11.688L7.849,19H14l6,4V19h3a1,1,0,0,0,1-1V7A1,1,0,0,0,23,6Z"/> <path d="M17,1H1A1,1,0,0,0,0,2V13a1,1,0,0,0,1,1H4v5.469L11,14h6a1,1,0,0,0,1-1V2A1,1,0,0,0,17,1Z" fill="#ffffff"/></g></g><g transform="translate(528 0)"><g class="nc-icon-wrapper" fill="#ffffff"><path fill="#ffffff" d="M12.74302,26.15643c-2.7882,2.59242-7.53655,1.90697-9.75978-0.83799 c-2.63128-3.24192-3.15667-9.38633,1.42737-14.88268c2.27374-2.72626,5.01397-4.7933,8.21788-6.20112l1.47765,2.37989 c-4.55767,2.20856-7.96419,5.20302-8.44693,10.22346c2.05637,0,3.76249-0.07449,5.28212,0.46927 c1.73011,0.61908,2.781,1.76722,3.21229,3.0838C14.8378,22.45246,14.50614,24.5171,12.74302,26.15643z M29.26816,26.15643 c-2.7882,2.59242-7.53655,1.90697-9.75978-0.83799c-2.63128-3.24192-3.15667-9.38633,1.42738-14.88268 c2.27374-2.72626,5.01397-4.7933,8.21788-6.20112l1.47765,2.37989c-4.55767,2.20856-7.96419,5.20302-8.44693,10.22346 c2.05637,0,3.76249-0.07449,5.28212,0.46927c1.73011,0.61908,2.781,1.76722,3.21229,3.0838 C31.36294,22.45246,31.03128,24.5171,29.26816,26.15643z"/></g></g></svg>